<?xml version="1.0" encoding="utf-8"?>
<!-- Generator: Adobe Illustrator 25.0.1, SVG Export Plug-In . SVG Version: 6.00 Build 0)  -->
<svg version="1.1" id="图层_1" xmlns="http://www.w3.org/2000/svg" xmlns:xlink="http://www.w3.org/1999/xlink" x="0px" y="0px"
	 viewBox="0 0 24 24" style="enable-background:new 0 0 24 24;" xml:space="preserve">
<style type="text/css">
	.st0{fill:none;}
	.st1{fill:#040000;}
</style>
<path class="st0" d="M0,0h24v24H0V0z"/>
<g>
	<path class="st1" d="M12,2C6.5,2,2,6.5,2,12s4.5,10,10,10s10-4.5,10-10S17.5,2,12,2z M18.6,16.6V15h-0.7v-0.7c0-1.1-0.9-2-2-2
		s-1.9,0.9-1.9,2V15h-0.7v3.2H17v0H17c-1.4,1.1-3.1,1.7-5,1.7c-1.8,0-3.6-0.6-5-1.7c1.3-1.4,3.1-2.2,5-2.2v-2c-2.4,0-4.7,1-6.4,2.8
		v0C3.5,14,3.5,10.2,5.5,7.4C8,3.8,13,2.9,16.6,5.5C20.2,8,21.1,13,18.6,16.6z M16.6,14.4V15h-1.3v-0.7c0-0.4,0.3-0.7,0.6-0.7
		C16.3,13.7,16.6,14,16.6,14.4z"/>
	<path class="st1" d="M12,5C9.8,5,8,6.8,8,9s1.8,4,4,4s4-1.8,4-4S14.2,5,12,5z M12,11c-1.1,0-2-0.9-2-2s0.9-2,2-2s2,0.9,2,2
		S13.1,11,12,11z"/>
</g>
</svg>
