<svg width="18" height="20" viewBox="0 0 18 20" fill="none" xmlns="http://www.w3.org/2000/svg">
<path d="M11.1322 1.75775L12.1746 0.241853C12.2192 0.177304 12.2029 0.0877925 12.1383 0.0431629L12.1123 0.0252606C12.0478 -0.0196213 11.9588 -0.00297962 11.9141 0.0615695L10.8418 1.62109C10.1413 1.3165 9.35991 1.1463 8.5354 1.1463C7.75299 1.1463 7.00891 1.2996 6.33669 1.5757L5.31198 0.0855232C5.2676 0.0209741 5.17834 0.00458476 5.11379 0.0492144L5.08782 0.0671167C5.02327 0.111746 5.00688 0.201258 5.05126 0.266059L6.04219 1.70656C4.48418 2.45317 3.36466 3.87678 3.13672 5.55783H13.9341C13.7114 3.91435 12.6363 2.51671 11.1322 1.75775ZM6.26181 3.92922C5.96478 3.92922 5.72373 3.68742 5.72373 3.38938C5.72373 3.09135 5.96478 2.84979 6.26181 2.84979C6.55909 2.84979 6.79988 3.09135 6.79988 3.38938C6.79988 3.68742 6.55909 3.92922 6.26181 3.92922ZM10.9063 3.92922C10.6093 3.92922 10.3682 3.68742 10.3682 3.38938C10.3682 3.09135 10.6093 2.84979 10.9063 2.84979C11.2036 2.84979 11.4444 3.09135 11.4444 3.38938C11.4444 3.68742 11.2036 3.92922 10.9063 3.92922Z" fill="#141F21"/>
<path d="M2.38529 7.72123V12.1428C2.38529 12.9008 1.90244 13.5211 1.31191 13.5211H1.07338C0.48311 13.5211 0 12.9008 0 12.1428V7.72123C0 6.96329 0.48311 6.34326 1.07338 6.34326H1.31191C1.90244 6.34326 2.38529 6.96329 2.38529 7.72123Z" fill="#141F21"/>
<path d="M17.1451 7.74711V12.1687C17.1451 12.9269 16.6622 13.547 16.0717 13.547H15.8331C15.2429 13.547 14.7598 12.9269 14.7598 12.1687V7.74711C14.7598 6.98916 15.2429 6.36914 15.8331 6.36914H16.0717C16.6622 6.36914 17.1451 6.98916 17.1451 7.74711Z" fill="#141F21"/>
<path d="M14.0186 6.27539V14.9999C14.0186 15.6055 13.5247 16.101 12.9208 16.101H12.0153V18.6222C12.0153 19.3801 11.5322 20.0002 10.9419 20.0002H10.7034C10.1131 20.0002 9.63002 19.3801 9.63002 18.6222V16.101H7.61286V18.5932C7.61286 19.3511 7.13 19.9714 6.53948 19.9714H6.30095C5.71068 19.9714 5.22757 19.3511 5.22757 18.5932V16.101H4.24042C3.63653 16.101 3.14258 15.6055 3.14258 14.9999V6.27539H14.0186Z" fill="#141F21"/>
</svg>
