<svg width="18" height="20" viewBox="0 0 18 20" fill="none" xmlns="http://www.w3.org/2000/svg">
<path d="M6.09435 19.006C5.46557 18.9719 4.87389 18.6977 4.44135 18.24C3.92395 17.7422 3.46223 17.1897 3.06435 16.592C2.44284 15.702 1.95155 14.7279 1.60535 13.699C1.21321 12.5922 1.00676 11.4282 0.994348 10.254C0.964214 9.10189 1.24986 7.96346 1.82035 6.96202C2.23792 6.24012 2.83353 5.63728 3.55035 5.21102C4.25923 4.78659 5.06816 4.55813 5.89435 4.54902C6.51717 4.58587 7.1292 4.72823 7.70435 4.97002C8.1629 5.17178 8.64554 5.31362 9.14035 5.39202C9.68636 5.27763 10.2199 5.11017 10.7333 4.89202C11.341 4.65474 11.9844 4.52187 12.6363 4.49902C12.7233 4.49902 12.8093 4.49902 12.8923 4.50902C14.3219 4.55048 15.6515 5.25221 16.4923 6.40902C15.1553 7.12387 14.3344 8.5303 14.3693 10.046C14.3561 11.1956 14.8355 12.2959 15.6863 13.069C16.0693 13.4339 16.5151 13.7262 17.0023 13.932C16.9023 14.232 16.7873 14.522 16.6653 14.814C16.388 15.4593 16.0459 16.0748 15.6443 16.651C15.2652 17.2282 14.8239 17.7621 14.3283 18.243C13.876 18.6919 13.273 18.9567 12.6363 18.986C12.0967 18.9621 11.5666 18.8355 11.0743 18.613C10.5436 18.3818 9.97313 18.2551 9.39435 18.24C8.79924 18.2517 8.21192 18.3777 7.66435 18.611C7.19139 18.8244 6.6861 18.9572 6.16935 19.004L6.09435 19.006ZM9.24435 4.49902C9.16935 4.49902 9.09435 4.49902 9.01935 4.49002C9.00357 4.37099 8.99522 4.25109 8.99435 4.13102C9.02706 3.13216 9.41742 2.17826 10.0943 1.44302C10.4727 1.0206 10.9312 0.677622 11.4433 0.434023C11.9212 0.188025 12.4435 0.0401219 12.9793 -0.000976562C12.9943 0.130023 12.9943 0.258023 12.9943 0.380023C12.9802 1.36317 12.6108 2.308 11.9543 3.04002C11.3109 3.9028 10.3189 4.43689 9.24435 4.49902Z" fill="#141F21"/>
</svg>
