<svg width="81" height="80" viewBox="0 0 81 80" fill="none" xmlns="http://www.w3.org/2000/svg">
<path d="M7.29688 12.5H73.7031C74.7387 12.5 75.5781 13.3395 75.5781 14.375V65.625C75.5781 66.6605 74.7387 67.5 73.7031 67.5H7.29688C6.26133 67.5 5.42188 66.6605 5.42188 65.625V14.375C5.42188 13.3395 6.26133 12.5 7.29688 12.5Z" fill="#FBFBFD"/>
<path d="M56.631 50.1237C57.1488 50.1237 57.5685 50.5434 57.5685 51.0612C57.5685 51.5789 57.1488 51.9987 56.631 51.9987C56.1133 51.9987 55.6935 51.5789 55.6935 51.0612C55.6935 50.5434 56.1133 50.1237 56.631 50.1237ZM56.6202 41.2104C57.4328 41.2206 58.1311 41.4847 58.7152 42.0028C59.3195 42.5462 59.6269 43.2801 59.637 44.2044C59.6271 44.8428 59.4677 45.3775 59.1589 45.8086L57.7172 47.7926C57.5358 48.0526 57.4466 48.3669 57.4498 48.7356L57.4506 48.7754V49.3542C57.4506 49.4344 57.4198 49.5115 57.3645 49.5696C57.3093 49.6278 57.2338 49.6624 57.1537 49.6664L57.138 49.6667H56.1709C56.0907 49.6667 56.0136 49.6359 55.9555 49.5806C55.8974 49.5254 55.8628 49.4499 55.8588 49.3698L55.8584 49.3542V48.6459C55.8584 48.3462 55.8837 48.0771 55.9345 47.8383C55.9871 47.6233 56.0869 47.4081 56.234 47.193L56.2621 47.1527L57.6562 45.2176C57.9152 44.852 58.0448 44.5092 58.0448 44.1892C58.0346 43.7525 57.8924 43.4096 57.6182 43.1608C57.3388 42.922 57.0341 42.8027 56.704 42.8027C56.2977 42.8027 55.9649 42.9271 55.7059 43.176C55.483 43.372 55.3445 43.6728 55.2903 44.0783L55.2848 44.1228L55.2822 44.1549L55.2789 44.2072C55.2744 44.284 55.2418 44.3566 55.1871 44.4108C55.1325 44.4651 55.0597 44.4972 54.9828 44.5012L54.967 44.5015H53.9842C53.9014 44.5015 53.8219 44.4686 53.7634 44.4101C53.7048 44.3515 53.6719 44.272 53.6719 44.1892C53.6819 43.3412 53.9687 42.6426 54.5322 42.0935L54.5632 42.0637C55.1371 41.5051 55.8228 41.2206 56.6202 41.2104H56.6202Z" fill="#D0D5DD"/>
<path d="M64.2061 39.0478C67.8877 42.7294 68.2906 48.448 65.415 52.5755C65.746 53.0788 65.8094 53.7065 65.605 54.2575L70.0342 58.6866C70.0923 58.7446 70.1383 58.8135 70.1697 58.8893C70.2011 58.9652 70.2173 59.0464 70.2173 59.1285C70.2173 59.2106 70.2011 59.2919 70.1697 59.3677C70.1383 59.4435 70.0923 59.5124 70.0342 59.5705L69.5923 60.0124C69.5342 60.0705 69.4653 60.1165 69.3895 60.1479C69.3137 60.1793 69.2324 60.1955 69.1503 60.1955C69.0682 60.1955 68.987 60.1793 68.9111 60.1479C68.8353 60.1165 68.7664 60.0705 68.7084 60.0124L64.2791 55.5833C63.7138 55.793 63.0674 55.7207 62.5577 55.3666C58.4478 58.089 52.8562 57.6395 49.2353 54.0186C45.1012 49.8845 45.1012 43.1819 49.2353 39.0478C53.3694 34.9137 60.072 34.9137 64.2061 39.0478ZM50.5612 40.3736C47.1593 43.7755 47.1593 49.2909 50.5612 52.6927C53.963 56.0946 59.4784 56.0946 62.8802 52.6927C66.2821 49.2909 66.2821 43.7755 62.8802 40.3737C59.4784 36.9718 53.963 36.9717 50.5612 40.3736Z" fill="#D0D5DD"/>
<path d="M13.3906 28.2812H67.6094C67.8177 28.2812 67.9219 28.3854 67.9219 28.5938V29.8438C67.9219 30.0521 67.8177 30.1562 67.6094 30.1562H13.3906C13.1823 30.1562 13.0781 30.0521 13.0781 29.8438V28.5938C13.0781 28.3854 13.1823 28.2812 13.3906 28.2812Z" fill="#EFEFF4"/>
<path d="M13.3906 37.1875H40.1875C40.3958 37.1875 40.5 37.2917 40.5 37.5V38.75C40.5 38.9583 40.3958 39.0625 40.1875 39.0625H13.3906C13.1823 39.0625 13.0781 38.9583 13.0781 38.75V37.5C13.0781 37.2917 13.1823 37.1875 13.3906 37.1875Z" fill="#EFEFF4"/>
<path d="M13.3906 46.0938H40.1875C40.3958 46.0938 40.5 46.1979 40.5 46.4062V47.6562C40.5 47.8646 40.3958 47.9688 40.1875 47.9688H13.3906C13.1823 47.9688 13.0781 47.8646 13.0781 47.6562V46.4062C13.0781 46.1979 13.1823 46.0938 13.3906 46.0938Z" fill="#EFEFF4"/>
<path d="M13.3906 55.0781H40.1875C40.3958 55.0781 40.5 55.1823 40.5 55.3906V56.6406C40.5 56.849 40.3958 56.9531 40.1875 56.9531H13.3906C13.1823 56.9531 13.0781 56.849 13.0781 56.6406V55.3906C13.0781 55.1823 13.1823 55.0781 13.3906 55.0781Z" fill="#EFEFF4"/>
<path d="M6.04688 12.5H74.9531C75.1189 12.5 75.2779 12.5658 75.3951 12.6831C75.5123 12.8003 75.5781 12.9592 75.5781 13.125V21.25H5.42188V13.125C5.42188 12.9592 5.48772 12.8003 5.60493 12.6831C5.72214 12.5658 5.88111 12.5 6.04688 12.5Z" fill="#EFEFF4"/>
<path d="M21.6719 16.875C21.6719 17.2065 21.8036 17.5245 22.038 17.7589C22.2724 17.9933 22.5904 18.125 22.9219 18.125C23.2534 18.125 23.5713 17.9933 23.8058 17.7589C24.0402 17.5245 24.1719 17.2065 24.1719 16.875C24.1719 16.5435 24.0402 16.2255 23.8058 15.9911C23.5713 15.7567 23.2534 15.625 22.9219 15.625C22.5904 15.625 22.2724 15.7567 22.038 15.9911C21.8036 16.2255 21.6719 16.5435 21.6719 16.875Z" fill="#D0D5DD"/>
<path d="M15.4219 16.875C15.4219 17.2065 15.5536 17.5245 15.788 17.7589C16.0224 17.9933 16.3404 18.125 16.6719 18.125C17.0034 18.125 17.3213 17.9933 17.5558 17.7589C17.7902 17.5245 17.9219 17.2065 17.9219 16.875C17.9219 16.5435 17.7902 16.2255 17.5558 15.9911C17.3213 15.7567 17.0034 15.625 16.6719 15.625C16.3404 15.625 16.0224 15.7567 15.788 15.9911C15.5536 16.2255 15.4219 16.5435 15.4219 16.875Z" fill="#D0D5DD"/>
<path d="M9.17188 16.875C9.17188 17.2065 9.30357 17.5245 9.53799 17.7589C9.77241 17.9933 10.0904 18.125 10.4219 18.125C10.7534 18.125 11.0713 17.9933 11.3058 17.7589C11.5402 17.5245 11.6719 17.2065 11.6719 16.875C11.6719 16.5435 11.5402 16.2255 11.3058 15.9911C11.0713 15.7567 10.7534 15.625 10.4219 15.625C10.0904 15.625 9.77241 15.7567 9.53799 15.9911C9.30357 16.2255 9.17188 16.5435 9.17188 16.875Z" fill="#D0D5DD"/>
</svg>
