<svg width="81" height="80" viewBox="0 0 81 80" fill="none" xmlns="http://www.w3.org/2000/svg">
<path d="M50.9084 4.95459L64.3281 18.594V50.6108C68.7085 52.6243 71.75 57.0508 71.75 62.1875C71.75 69.2205 66.0486 74.9219 59.0156 74.9219C58.7774 74.9219 58.5408 74.9153 58.3059 74.9024C58.0266 74.9368 57.742 74.9546 57.4531 74.9546H11.125C10.0895 74.9546 9.25 74.1151 9.25 73.0796V6.82959C9.25 5.79404 10.0895 4.95459 11.125 4.95459H50.9084Z" fill="#EFEFF4"/>
<path d="M18.8594 27.2656H54.4844C54.6927 27.2656 54.7969 27.3698 54.7969 27.5781V28.8281C54.7969 29.0365 54.6927 29.1406 54.4844 29.1406H18.8594C18.651 29.1406 18.5469 29.0365 18.5469 28.8281V27.5781C18.5469 27.3698 18.651 27.2656 18.8594 27.2656Z" fill="#FBFBFD"/>
<path d="M18.8594 41.6406H54.4844C54.6927 41.6406 54.7969 41.7448 54.7969 41.9531V43.2031C54.7969 43.4115 54.6927 43.5156 54.4844 43.5156H18.8594C18.651 43.5156 18.5469 43.4115 18.5469 43.2031V41.9531C18.5469 41.7448 18.651 41.6406 18.8594 41.6406Z" fill="#FBFBFD"/>
<path d="M18.8594 56.0156H36.3594C36.5677 56.0156 36.6719 56.1198 36.6719 56.3281V57.5781C36.6719 57.7865 36.5677 57.8906 36.3594 57.8906H18.8594C18.651 57.8906 18.5469 57.7865 18.5469 57.5781V56.3281C18.5469 56.1198 18.651 56.0156 18.8594 56.0156Z" fill="#FBFBFD"/>
<path d="M46.2812 62.1875C46.2812 65.5649 47.6229 68.8039 50.0111 71.1921C52.3992 73.5802 55.6383 74.9219 59.0156 74.9219C62.393 74.9219 65.632 73.5802 68.0202 71.1921C70.4083 68.8039 71.75 65.5649 71.75 62.1875C71.75 58.8101 70.4083 55.5711 68.0202 53.1829C65.632 50.7948 62.393 49.4531 59.0156 49.4531C55.6383 49.4531 52.3992 50.7948 50.0111 53.1829C47.6229 55.5711 46.2812 58.8101 46.2812 62.1875Z" fill="#D0D5DD"/>
<path d="M50.9082 4.95459V17.344C50.9082 18.0344 51.4678 18.594 52.1582 18.594H64.3279L50.9082 4.95459Z" fill="#D0D5DD"/>
<path d="M60.3047 66.3672C60.3876 66.3672 60.4671 66.4001 60.5257 66.4587C60.5843 66.5173 60.6172 66.5968 60.6172 66.6797V69.1797C60.6172 69.2626 60.5843 69.3421 60.5257 69.4007C60.4671 69.4593 60.3876 69.4922 60.3047 69.4922H57.8047C57.7218 69.4922 57.6423 69.4593 57.5837 69.4007C57.5251 69.3421 57.4922 69.2626 57.4922 69.1797V66.6797C57.4922 66.5968 57.5251 66.5173 57.5837 66.4587C57.6423 66.4001 57.7218 66.3672 57.8047 66.3672H60.3047ZM60.1484 54.8828C60.2313 54.8828 60.3108 54.9157 60.3694 54.9743C60.428 55.0329 60.4609 55.1124 60.4609 55.1953V64.4922C60.4609 64.5751 60.428 64.6546 60.3694 64.7132C60.3108 64.7718 60.2313 64.8047 60.1484 64.8047H57.9609C57.8781 64.8047 57.7986 64.7718 57.74 64.7132C57.6814 64.6546 57.6484 64.5751 57.6484 64.4922V55.1953C57.6484 55.1124 57.6814 55.0329 57.74 54.9743C57.7986 54.9157 57.8781 54.8828 57.9609 54.8828H60.1484Z" fill="#FBFBFD"/>
</svg>
