<svg width="81" height="80" viewBox="0 0 81 80" fill="none" xmlns="http://www.w3.org/2000/svg">
<path d="M54.3826 23.863C66.305 36.0875 71.5392 50.2218 66.0717 55.6893L65.9921 55.7675L65.9232 55.8332C65.9021 55.8588 65.8782 55.8827 65.8542 55.9067C57.5828 64.1781 45.14 65.9982 34.2115 61.6073L37.0998 71.7338C37.4729 73.0418 36.7152 74.4041 35.4073 74.7768C35.1878 74.8393 34.9606 74.871 34.7322 74.871L20.1498 74.8683C19.5262 74.8691 18.9257 74.6325 18.4703 74.2065L18.4084 74.1468C17.9627 73.7011 17.687 73.0854 17.6868 72.4054C17.6868 72.1772 17.7185 71.9501 17.781 71.7306L21.2917 59.4021L22.8228 54.025L22.5192 53.7179C10.5052 41.3404 9.82089 22.3736 21.071 11.1234L21.1407 11.0593L21.1786 11.0184C21.2142 10.9801 21.2513 10.9432 21.2884 10.9061C26.756 5.43849 40.8903 10.6726 53.1146 22.5951L35.2381 38.0476L35.1736 38.1052C34.1403 39.0586 34.0438 40.6672 34.9703 41.739C35.0117 41.7868 35.0548 41.8333 35.0996 41.878C36.1218 42.9003 37.7789 42.9006 38.8007 41.8787L38.8666 41.8104L38.93 41.7397L54.3826 23.863Z" fill="#EFEFF4"/>
<path d="M57.9046 18.4553C57.3706 17.6368 57.4627 16.5295 58.181 15.8112C59.0051 14.987 60.3415 14.9873 61.166 15.8117C61.9904 16.6361 61.9907 17.9726 61.1665 18.7968C60.4482 19.515 59.341 19.6071 58.5225 19.0732L39.0775 41.5689L54.3826 23.863C66.305 36.0875 71.5392 50.2218 66.0717 55.6893C60.5087 61.2522 45.974 55.7368 33.6074 43.3703C21.2409 31.0037 15.7254 16.469 21.2884 10.9061C26.756 5.43849 40.8903 10.6726 53.1146 22.5951L35.2381 38.0476L57.9045 18.4553H57.9046Z" fill="#FBFBFD"/>
<path d="M61.1653 15.8118C61.9898 16.6363 61.99 17.9728 61.1659 18.7969C60.4476 19.5151 59.3403 19.6072 58.5219 19.0733L38.9293 41.7397C38.8879 41.7876 38.8448 41.834 38.8 41.8788C37.7782 42.9007 36.1211 42.9004 35.0989 41.8781C35.0541 41.8334 35.011 41.787 34.9696 41.7391C34.0242 40.6454 34.144 38.9928 35.2374 38.0478L57.9038 18.4554C57.3699 17.637 57.462 16.5296 58.1803 15.8113C59.0044 14.9871 60.3408 14.9874 61.1653 15.8118Z" fill="#EFEFF4"/>
<path d="M31.6849 52.76L37.0943 71.728C37.4672 73.0356 36.7091 74.3978 35.4009 74.7706C35.1813 74.8332 34.9541 74.865 34.7257 74.865H20.1406C18.7805 74.865 17.6777 73.7627 17.6777 72.4029C17.6777 72.1748 17.7095 71.9477 17.772 71.7282L23.1527 52.8511C23.6972 50.9405 25.4313 49.6134 27.4185 49.5863C29.3945 49.5595 31.1431 50.8603 31.6849 52.76Z" fill="#FBFBFD"/>
<path d="M25.4043 53.8559C25.4043 54.4156 25.6267 54.9524 26.0226 55.3481C26.4185 55.7439 26.9555 55.9662 27.5154 55.9662C28.0753 55.9662 28.6123 55.7439 29.0082 55.3481C29.4041 54.9524 29.6265 54.4156 29.6265 53.8559C29.6265 53.2962 29.4041 52.7595 29.0082 52.3637C28.6123 51.9679 28.0753 51.7456 27.5154 51.7456C26.9555 51.7456 26.4185 51.9679 26.0226 52.3637C25.6267 52.7595 25.4043 53.2962 25.4043 53.8559Z" fill="#EFEFF4"/>
<path d="M71.5156 17.1484C71.5156 23.7053 66.2534 29.0331 59.7217 29.1391L59.5234 29.1406V27.7298C65.3089 27.7298 70.0099 23.0866 70.1034 17.3234L70.1048 17.1484H71.5156ZM68.3125 17.3047C68.3125 22.1102 64.4558 26.0149 59.6687 26.0926L59.5234 26.0938V24.6875C63.5597 24.6875 66.8394 21.4485 66.9052 17.428L66.9062 17.3047H68.3125ZM64.7188 17.1484C64.7188 20.024 62.4172 22.362 59.5556 22.4208L59.4453 22.4219V21.0156C61.5472 21.0156 63.2574 19.3388 63.3112 17.2498L63.3125 17.1484H64.7188ZM59.5234 8.51562V9.92188C55.4872 9.92188 52.2075 13.1609 52.1416 17.1814L52.1406 17.3047H50.7344C50.7344 12.4506 54.6694 8.51562 59.5234 8.51562ZM59.4453 11.875V13.2812C57.3434 13.2812 55.6332 14.9581 55.5795 17.047L55.5781 17.1484H54.1719C54.1719 14.2359 56.5328 11.875 59.4453 11.875ZM59.5234 5.15625V6.56711C53.738 6.56711 49.037 11.2102 48.9435 16.9734L48.9421 17.1484H47.5312C47.5312 10.5253 52.9003 5.15625 59.5234 5.15625Z" fill="#EFEFF4"/>
</svg>
