<svg width="81" height="80" viewBox="0 0 81 80" fill="none" xmlns="http://www.w3.org/2000/svg">
<path d="M14.875 5H54.6584L68.0781 18.6395V73.125C68.0781 74.1605 67.2387 75 66.2031 75H14.875C13.8395 75 13 74.1605 13 73.125V6.875C13 5.83945 13.8395 5 14.875 5Z" fill="#EFEFF4"/>
<path d="M54.6415 5V17.3895C54.6415 18.0798 55.2011 18.6395 55.8915 18.6395H68.079L54.6415 5ZM47.0459 31.3322C51.301 35.5873 51.9263 42.0977 48.9222 47.0158C49.273 47.7071 49.3501 48.5019 49.1533 49.239L56.8514 56.9372C56.9686 57.0544 57.0345 57.2134 57.0345 57.3791C57.0345 57.5448 56.9686 57.7038 56.8514 57.821L55.5256 59.1469C55.4676 59.2049 55.3987 59.251 55.3229 59.2824C55.247 59.3138 55.1658 59.3299 55.0837 59.3299C55.0016 59.3299 54.9203 59.3138 54.8445 59.2824C54.7687 59.251 54.6998 59.2049 54.6417 59.1469L46.9436 51.4487C46.2133 51.6437 45.4261 51.5698 44.7389 51.2269C39.8125 54.2833 33.2581 53.6731 28.9815 49.3966C23.9931 44.4082 23.9931 36.3205 28.9815 31.3322C33.9698 26.3438 42.0575 26.3438 47.0459 31.3322ZM31.1912 33.5419C27.4232 37.3098 27.4232 43.4189 31.1912 47.1868C34.9592 50.9548 41.0682 50.9548 44.8361 47.1868C48.6041 43.4188 48.6041 37.3098 44.8361 33.5419C41.0681 29.7739 34.9592 29.7739 31.1912 33.5419Z" fill="#D0D5DD"/>
</svg>
