<?xml version="1.0" encoding="utf-8"?>
<!-- Generator: Adobe Illustrator 25.0.1, SVG Export Plug-In . SVG Version: 6.00 Build 0)  -->
<svg version="1.1" id="图层_1" xmlns="http://www.w3.org/2000/svg" xmlns:xlink="http://www.w3.org/1999/xlink" x="0px" y="0px"
	 viewBox="0 0 24 24" style="enable-background:new 0 0 24 24;" xml:space="preserve">
<path d="M12,2C6.5,2,2,6.5,2,12s4.5,10,10,10c5.5,0,10-4.5,10-10S17.5,2,12,2z M14,16h-1v2h-2v-2H8.5v-2H14c0.3,0,0.5-0.2,0.5-0.5
	c0-0.2-0.2-0.4-0.4-0.5L14,13h-4c-1.4,0-2.5-1.1-2.5-2.5S8.6,8,10,8h1V6h2v2h2.5v2H10c-0.3,0-0.5,0.2-0.5,0.5c0,0.2,0.2,0.4,0.4,0.5
	l0.1,0h4c1.4,0,2.5,1.1,2.5,2.5S15.4,16,14,16z"/>
</svg>
