<?xml version="1.0" encoding="utf-8"?>
<!-- Generator: Adobe Illustrator 25.0.1, SVG Export Plug-In . SVG Version: 6.00 Build 0)  -->
<svg version="1.1" id="图层_1" xmlns="http://www.w3.org/2000/svg" xmlns:xlink="http://www.w3.org/1999/xlink" x="0px" y="0px"
	 viewBox="0 0 24 24" style="enable-background:new 0 0 24 24;" xml:space="preserve">
<path d="M20,22h-2v-2c0-0.8-0.3-1.6-0.9-2.1C16.6,17.3,15.8,17,15,17H9c-0.8,0-1.6,0.3-2.1,0.9C6.3,18.4,6,19.2,6,20v2H4v-2
	c0-1.3,0.5-2.6,1.5-3.5C6.4,15.5,7.7,15,9,15h6c1.3,0,2.6,0.5,3.5,1.5c0.9,0.9,1.5,2.2,1.5,3.5V22z M12,13c-0.8,0-1.6-0.2-2.3-0.5
	c-0.7-0.3-1.4-0.7-1.9-1.3c-0.6-0.6-1-1.2-1.3-1.9C6.2,8.6,6,7.8,6,7s0.2-1.6,0.5-2.3C6.8,4,7.2,3.3,7.8,2.8s1.2-1,1.9-1.3
	C10.4,1.2,11.2,1,12,1c1.6,0,3.1,0.6,4.2,1.8C17.4,3.9,18,5.4,18,7s-0.6,3.1-1.8,4.2C15.1,12.4,13.6,13,12,13z M12,11
	c1.1,0,2.1-0.4,2.8-1.2C15.6,9.1,16,8.1,16,7s-0.4-2.1-1.2-2.8C14.1,3.4,13.1,3,12,3S9.9,3.4,9.2,4.2C8.4,4.9,8,5.9,8,7
	s0.4,2.1,1.2,2.8C9.9,10.6,10.9,11,12,11z"/>
</svg>
